<svg width="32" height="32" viewBox="0 0 32 32" fill="none" xmlns="http://www.w3.org/2000/svg">
<rect width="32" height="32" fill="white"/>
<path d="M21.0665 7.27912C21.0566 7.28735 21.0089 7.29722 20.9596 7.30216C20.6913 7.32355 20.2322 7.47824 19.9426 7.64444C19.6678 7.80077 19.5115 7.92089 19.2745 8.16114C19.0392 8.3981 18.9437 8.53962 18.5159 9.28012C18.427 9.43316 18.2938 9.66025 18.2197 9.78202C18.1457 9.90379 17.9696 10.2 17.8297 10.4402C17.6898 10.6805 17.5417 10.9323 17.5006 10.9997C17.4595 11.0672 17.3574 11.2449 17.2735 11.3947C17.1896 11.5444 17.104 11.6925 17.0843 11.7238C16.9905 11.8735 16.8029 12.2191 16.7683 12.3063L16.7305 12.405V14.6957V16.9846L16.7667 17.0324C16.8193 17.0998 16.8473 17.1196 16.8934 17.1212C16.9477 17.1212 17.0662 16.9945 17.1484 16.8497C17.183 16.7855 17.2406 16.6868 17.2735 16.6276C17.3064 16.5683 17.3706 16.4581 17.4134 16.3807C17.4562 16.3034 17.5335 16.1701 17.5862 16.0845C17.6372 15.9989 17.6981 15.8953 17.7211 15.8541C17.8363 15.6468 18.0601 15.2552 18.1259 15.1465C18.2213 14.9869 18.4665 14.5591 18.6311 14.2662C18.7019 14.1395 18.7907 13.9914 18.8286 13.9371C18.9059 13.8252 19.0178 13.6376 19.2186 13.2788C19.3913 12.9711 19.7468 12.354 19.9755 11.9624C20.071 11.7995 20.168 11.6267 20.1927 11.5806C20.2158 11.5329 20.3194 11.3535 20.4215 11.1824C20.5218 11.0113 20.6518 10.7875 20.7078 10.6838C21.0073 10.1408 21.0797 10.0173 21.1192 9.9762C21.1653 9.92848 21.2985 9.88075 21.3858 9.88075C21.4137 9.88075 21.4647 9.89886 21.4993 9.92025C21.5635 9.96139 21.8613 10.2559 21.886 10.3053C21.9058 10.3415 23.158 11.6185 23.6171 12.0694C23.6945 12.1467 24.0071 12.4643 24.3099 12.7769C24.6144 13.0896 24.8743 13.3578 24.8892 13.3726C24.904 13.3874 25.0981 13.58 25.3203 13.8005C25.5424 14.021 25.7564 14.2382 25.7975 14.2826C25.8386 14.3287 25.9275 14.4176 25.995 14.4801C26.0624 14.5443 26.1365 14.6167 26.1595 14.6414C26.1826 14.666 26.3043 14.7878 26.4311 14.9129C26.5578 15.0363 26.7075 15.1893 26.7635 15.2535C26.821 15.316 26.8918 15.3852 26.9214 15.4065C26.9527 15.4263 27.0054 15.479 27.0399 15.5217C27.0745 15.5645 27.1436 15.632 27.1929 15.6715C27.2851 15.7488 27.3888 15.8854 27.4332 15.9924C27.448 16.0286 27.4595 16.1026 27.4595 16.1668C27.4595 16.3758 27.4661 16.3676 26.5018 17.3187C26.0279 17.7844 25.2265 18.5775 24.7197 19.0811C24.2128 19.5846 23.7768 20.0141 23.7488 20.0355C23.7225 20.0569 23.2584 20.5127 22.7203 21.0492C22.1822 21.584 21.7099 22.0447 21.6737 22.0727C21.5372 22.1698 21.3874 22.2323 21.3874 22.1895C21.3874 22.1599 21.5701 21.8061 21.6458 21.6877C21.9173 21.268 22.3106 20.5045 22.4142 20.1984C22.6133 19.6044 22.5689 19.0465 22.2826 18.5463C22.0736 18.1859 21.7264 17.8239 21.4549 17.6856C21.1718 17.5425 21.0056 17.5507 20.8756 17.7153C20.7983 17.8124 20.6091 18.1201 20.4741 18.3718C20.3408 18.6203 20.2339 18.8046 20.0134 19.1617C19.9212 19.3115 19.8291 19.4678 19.8077 19.5073C19.7863 19.5484 19.7353 19.6323 19.6925 19.6965C19.6497 19.7591 19.5888 19.8627 19.5575 19.9269C19.5246 19.9894 19.4226 20.1672 19.3288 20.3218C19.0211 20.832 18.8039 21.3174 18.7282 21.6646C18.7035 21.7798 18.6706 22.0546 18.6673 22.1649C18.6624 22.4035 18.7249 22.8593 18.7874 23.0337C18.8055 23.0814 18.8302 23.1522 18.845 23.1917C18.8927 23.3233 19.0491 23.6212 19.1478 23.766C19.2877 23.975 19.597 24.2794 19.8274 24.4324C20.0775 24.5987 20.3375 24.727 20.5761 24.7978C20.8279 24.8718 20.8839 24.8817 21.1784 24.913C21.3693 24.9327 21.4532 24.9343 21.5651 24.9212C22.0917 24.857 22.3682 24.7797 22.745 24.5888C23.1136 24.4028 23.4279 24.1593 23.8064 23.7627C23.9101 23.6541 24.7394 22.8247 25.6478 21.9197C29.1281 18.4492 29.4112 18.1645 29.4688 18.0756C29.6333 17.8272 29.7436 17.6494 29.7715 17.5902C29.8736 17.3697 30.0085 16.904 30.0447 16.644C30.0743 16.4334 30.071 15.9002 30.0381 15.6633C29.9575 15.0758 29.7419 14.5574 29.398 14.1181C29.3618 14.072 28.4847 13.1834 27.4464 12.1418C26.408 11.1018 25.1327 9.81658 24.6127 9.28671C23.3999 8.05418 23.3604 8.01469 23.1185 7.83203C22.6232 7.45849 22.016 7.26431 21.3463 7.26431C21.1998 7.26431 21.0747 7.27089 21.0665 7.27912Z" fill="#AB53C7"/>
<path d="M10.3151 7.32206C9.72764 7.43066 9.57131 7.48168 9.2389 7.67256C8.87688 7.88155 8.71397 8.02307 7.75625 8.96926C5.96095 10.7448 2.76033 13.9454 2.67805 14.0508C2.62704 14.1133 2.53489 14.2466 2.474 14.347C2.41312 14.4457 2.35223 14.5444 2.33907 14.5658C2.2897 14.6448 2.16628 14.9887 2.1054 15.2158C2.02147 15.5235 1.99844 15.7029 2.00008 16.0337C2.00008 16.3578 2.02147 16.5405 2.09717 16.8515C2.19097 17.2415 2.30286 17.485 2.55134 17.8355C2.71919 18.0709 2.77514 18.1285 5.17272 20.5343C5.80626 21.1711 6.74752 22.1173 7.26259 22.6406C8.51321 23.9077 8.84397 24.2236 9.07435 24.375C9.52523 24.6745 9.94485 24.821 10.4961 24.872C11.0128 24.9197 11.6102 24.8078 12.0561 24.5791C12.5942 24.3042 12.9924 23.9356 13.338 23.3959C13.4022 23.2972 13.4746 23.1737 13.4993 23.1244C13.5239 23.075 13.5898 22.9582 13.6457 22.8627C13.7033 22.7673 13.8251 22.5567 13.9189 22.3937C14.0127 22.2308 14.1312 22.0268 14.1822 21.9412C14.2348 21.8557 14.2924 21.752 14.3138 21.7108C14.3336 21.6697 14.457 21.4558 14.5853 21.2336C15.3225 19.9682 15.6829 19.3133 15.7109 19.1931C15.7224 19.1438 15.729 18.3967 15.729 16.9881V14.8571L15.6895 14.7732C15.6549 14.6975 15.6434 14.6876 15.576 14.6695C15.5348 14.6596 15.4838 14.6514 15.4624 14.6514C15.4015 14.6514 15.2584 14.7583 15.2139 14.8357C15.1925 14.8752 15.1168 15.0101 15.0461 15.1368C14.9753 15.2635 14.8832 15.4232 14.8437 15.4906C14.7104 15.7111 14.2118 16.58 14.1213 16.7495C14.0719 16.84 13.9896 16.9848 13.937 17.0704C13.8843 17.1559 13.7971 17.304 13.7428 17.3995C13.6885 17.4949 13.6128 17.6282 13.5733 17.6957C13.5338 17.7631 13.4631 17.8931 13.4137 17.9836C13.3643 18.0742 13.2771 18.2255 13.2195 18.321C12.9019 18.8509 12.5745 19.4136 12.4708 19.6128C12.4231 19.7033 12.3243 19.8728 12.2536 19.9912C12.1828 20.1081 12.0331 20.3648 11.9212 20.5589C11.8109 20.7531 11.7007 20.9424 11.6776 20.9786C11.6546 21.0148 11.5345 21.2254 11.411 21.4459C11.1609 21.8935 11.0293 22.091 10.9355 22.1519C10.8532 22.2062 10.687 22.2127 10.5866 22.1634C10.5422 22.142 10.2114 21.8194 9.59928 21.204C9.09245 20.6922 8.27131 19.8662 7.77271 19.3659C5.42943 17.0144 4.78766 16.3628 4.73829 16.2904C4.65766 16.1735 4.63133 16.0814 4.64285 15.9547C4.66095 15.7737 4.45361 15.9942 7.01575 13.4189C8.97397 11.4508 9.76713 10.6477 10.2147 10.1804C10.5076 9.87432 10.5784 9.82166 10.6623 9.84141C10.7676 9.86774 10.7676 9.93685 10.6689 10.1409C10.5784 10.3269 10.4089 10.6379 10.348 10.7267C10.2114 10.9291 9.78029 11.7799 9.70789 11.9922C9.50055 12.5895 9.53346 13.2132 9.79346 13.7052C9.94979 13.9981 10.2657 14.3634 10.4599 14.477C10.6919 14.6102 10.8697 14.6382 11.0178 14.5625C11.2169 14.4621 11.2909 14.3585 11.7879 13.4748C11.9853 13.1243 12.0726 12.9713 12.2157 12.7343C12.2585 12.6619 12.3737 12.4611 12.4708 12.29C12.5679 12.1172 12.7143 11.8638 12.7966 11.7272C13.0418 11.3142 13.2064 10.9193 13.2639 10.6033C13.2936 10.447 13.3001 10.3532 13.2985 10.0685C13.2985 9.76572 13.2919 9.69496 13.2557 9.50078C13.1619 9.01369 12.9645 8.60724 12.6353 8.22712C12.456 8.01978 12.3293 7.90952 12.0693 7.73345C11.6398 7.44547 11.2448 7.32864 10.6689 7.32041C10.4978 7.31712 10.3381 7.31877 10.3151 7.32206Z" fill="black"/>
</svg>
